# Blender v2.93.4 OBJ File: ''
# www.blender.org
mtllib untitled.mtl
o Cube
v 4.160999 2.317307 -4.839254
v 4.160999 -3.460965 -4.839254
v 4.160999 2.317307 2.201093
v 4.160999 -3.460965 2.201093
v -5.492241 2.317307 -4.839254
v -5.492241 -3.460965 -4.839254
v -5.492241 2.317307 2.201093
v -5.492241 -3.460965 2.201093
vt 0.625000 0.500000
vt 0.875000 0.500000
vt 0.875000 0.750000
vt 0.625000 0.750000
vt 0.375000 0.750000
vt 0.625000 1.000000
vt 0.375000 1.000000
vt 0.375000 0.000000
vt 0.625000 0.000000
vt 0.625000 0.250000
vt 0.375000 0.250000
vt 0.125000 0.500000
vt 0.375000 0.500000
vt 0.125000 0.750000
vn 0.0000 1.0000 0.0000
vn 0.0000 0.0000 1.0000
vn -1.0000 0.0000 0.0000
vn 0.0000 -1.0000 0.0000
vn 1.0000 0.0000 0.0000
vn 0.0000 0.0000 -1.0000
usemtl Material
s off
f 1/1/1 5/2/1 7/3/1 3/4/1
f 4/5/2 3/4/2 7/6/2 8/7/2
f 8/8/3 7/9/3 5/10/3 6/11/3
f 6/12/4 2/13/4 4/5/4 8/14/4
f 2/13/5 1/1/5 3/4/5 4/5/5
f 6/11/6 5/10/6 1/1/6 2/13/6
o Cube.001
v -6.183721 2.173994 2.516370
v -0.597335 4.758218 1.936828
v -6.204030 1.996729 -5.319894
v -0.570928 4.758218 -5.029922
v 4.897614 1.732202 2.253203
v 4.884335 1.996729 -5.466089
vt 0.375000 0.000000
vt 0.625000 0.000000
vt 0.625000 0.250000
vt 0.375000 0.250000
vt 0.625000 0.500000
vt 0.375000 0.500000
vt 0.625000 0.750000
vt 0.375000 0.750000
vt 0.625000 1.000000
vt 0.375000 1.000000
vt 0.125000 0.500000
vt 0.125000 0.750000
vn -0.4303 0.9026 -0.0110
vn -0.0131 0.1308 -0.9913
vn 0.4674 0.8839 0.0163
vn 0.0297 0.1572 0.9871
vn -0.0200 -0.9998 -0.0056
usemtl None
s off
f 9/15/7 10/16/7 12/17/7 11/18/7
f 11/18/8 12/19/8 14/20/8
f 14/20/9 12/19/9 10/21/9 13/22/9
f 13/22/10 10/23/10 9/24/10
f 11/25/11 14/20/11 13/22/11 9/26/11
o Cube.002
v -2.340209 0.576650 -1.942749
v -2.360770 6.994251 -2.005163
v -2.296043 0.563011 -3.359638
v -2.316604 6.980613 -3.422052
v -1.887312 0.578238 -1.928647
v -1.907873 6.995839 -1.991061
v -1.843147 0.564600 -3.345536
v -1.863708 6.982201 -3.407950
vt 0.375000 0.000000
vt 0.625000 0.000000
vt 0.625000 0.250000
vt 0.375000 0.250000
vt 0.625000 0.500000
vt 0.375000 0.500000
vt 0.625000 0.750000
vt 0.375000 0.750000
vt 0.625000 1.000000
vt 0.375000 1.000000
vt 0.125000 0.500000
vt 0.125000 0.750000
vt 0.875000 0.500000
vt 0.875000 0.750000
vn -0.9995 -0.0035 -0.0311
vn 0.0312 -0.0096 -0.9995
vn 0.9995 0.0035 0.0311
vn -0.0312 0.0096 0.9995
vn 0.0032 -0.9999 0.0097
vn -0.0032 0.9999 -0.0097
usemtl None
s off
f 15/27/12 16/28/12 18/29/12 17/30/12
f 17/30/13 18/29/13 22/31/13 21/32/13
f 21/32/14 22/31/14 20/33/14 19/34/14
f 19/34/15 20/33/15 16/35/15 15/36/15
f 17/37/16 21/32/16 19/34/16 15/38/16
f 22/31/17 18/39/17 16/40/17 20/33/17
o Cube.003
v -2.577427 -0.587976 1.984871
v -2.577427 -0.587976 2.303242
v -4.008661 -0.587976 1.984871
v -4.008661 -0.587976 2.303242
v -2.577427 0.638661 1.984871
v -2.577427 0.638661 2.303242
v -4.008661 0.638661 1.984871
v -4.008661 0.638661 2.303242
vt 0.375000 0.000000
vt 0.625000 0.000000
vt 0.625000 0.250000
vt 0.375000 0.250000
vt 0.625000 0.500000
vt 0.375000 0.500000
vt 0.625000 0.750000
vt 0.375000 0.750000
vt 0.625000 1.000000
vt 0.375000 1.000000
vt 0.125000 0.500000
vt 0.125000 0.750000
vt 0.875000 0.500000
vt 0.875000 0.750000
vn 0.0000 -1.0000 0.0000
vn -1.0000 0.0000 -0.0000
vn 0.0000 1.0000 0.0000
vn 1.0000 0.0000 0.0000
vn 0.0000 0.0000 -1.0000
vn 0.0000 0.0000 1.0000
usemtl None
s off
f 23/41/18 24/42/18 26/43/18 25/44/18
f 25/44/19 26/43/19 30/45/19 29/46/19
f 29/46/20 30/45/20 28/47/20 27/48/20
f 27/48/21 28/47/21 24/49/21 23/50/21
f 25/51/22 29/46/22 27/48/22 23/52/22
f 30/45/23 26/53/23 24/54/23 28/47/23
o Cube.004
v 2.812298 -1.137109 1.514708
v 2.812298 -1.137109 1.892147
v 1.330929 -1.137109 1.514708
v 1.330930 -1.137109 1.892147
v 2.812298 0.193380 1.514708
v 2.812298 0.193380 1.892147
v 1.344568 0.193380 1.290316
v 1.330930 0.193380 1.892147
vt 0.375000 0.000000
vt 0.625000 0.000000
vt 0.625000 0.250000
vt 0.375000 0.250000
vt 0.625000 0.500000
vt 0.375000 0.500000
vt 0.625000 0.750000
vt 0.375000 0.750000
vt 0.625000 1.000000
vt 0.375000 1.000000
vt 0.125000 0.500000
vt 0.125000 0.750000
vt 0.875000 0.500000
vt 0.875000 0.750000
vn 0.0000 -1.0000 -0.0000
vn -0.9999 0.0040 -0.0139
vn 0.0000 1.0000 0.0000
vn 1.0000 0.0000 0.0000
vn 0.0756 -0.0842 -0.9936
vn -0.0000 0.0000 1.0000
usemtl None
s off
f 31/55/24 32/56/24 34/57/24 33/58/24
f 33/58/25 34/57/25 38/59/25 37/60/25
f 37/60/26 38/59/26 36/61/26 35/62/26
f 35/62/27 36/61/27 32/63/27 31/64/27
f 33/65/28 37/60/28 35/62/28 31/66/28
f 38/59/29 34/67/29 32/68/29 36/61/29
o Cube.005
v 0.293833 -3.129414 2.118125
v 0.293833 -3.129414 2.588736
v -1.635028 -3.129414 2.118124
v -1.635028 -3.129414 2.588736
v 0.293833 -0.273789 2.118125
v 0.293833 -0.273789 2.588736
v -1.635028 -0.273789 2.118124
v -1.635028 -0.273789 2.588736
vt 0.375000 0.000000
vt 0.625000 0.000000
vt 0.625000 0.250000
vt 0.375000 0.250000
vt 0.625000 0.500000
vt 0.375000 0.500000
vt 0.625000 0.750000
vt 0.375000 0.750000
vt 0.625000 1.000000
vt 0.375000 1.000000
vt 0.125000 0.500000
vt 0.125000 0.750000
vt 0.875000 0.500000
vt 0.875000 0.750000
vn 0.0000 -1.0000 -0.0000
vn -1.0000 0.0000 -0.0000
vn 0.0000 1.0000 -0.0000
vn 1.0000 0.0000 -0.0000
vn 0.0000 0.0000 -1.0000
vn 0.0000 0.0000 1.0000
usemtl None
s off
f 39/69/30 40/70/30 42/71/30 41/72/30
f 41/72/31 42/71/31 46/73/31 45/74/31
f 45/74/32 46/73/32 44/75/32 43/76/32
f 43/76/33 44/75/33 40/77/33 39/78/33
f 41/79/34 45/74/34 43/76/34 39/80/34
f 46/73/35 42/81/35 40/82/35 44/75/35
o Cube.008
v 0.293833 -3.129414 2.588736
o Cylinder
v 0.025444 -0.496417 23.930616
v 0.025444 1.503583 24.356152
v 1.177852 -0.496417 24.027994
v 1.081086 1.503583 24.445351
v 2.285974 -0.496417 24.316381
v 2.096161 1.503583 24.709524
v 3.307224 -0.496417 24.784697
v 3.031659 1.503583 25.138515
v 4.202358 -0.496417 25.414944
v 3.851630 1.503583 25.715841
v 4.936975 -0.496417 26.182899
v 4.524562 1.503583 26.419315
v 5.482845 -0.496417 27.059057
v 5.024597 1.503583 27.221903
v 5.818990 -0.496417 28.009743
v 5.332516 1.503583 28.092760
v 5.932492 -0.496417 28.998423
v 5.436488 1.503583 28.998423
v 5.818990 -0.496417 29.987103
v 5.332516 1.503583 29.904085
v 5.482845 -0.496417 30.937788
v 5.024597 1.503583 30.774942
v 4.936975 -0.496417 31.813944
v 4.524563 1.503583 31.577530
v 4.202358 -0.496417 32.581902
v 3.851630 1.503583 32.281006
v 3.307224 -0.496417 33.212151
v 3.031659 1.503583 32.858330
v 2.285974 -0.496417 33.680466
v 2.096161 1.503583 33.287323
v 1.177852 -0.496417 33.968853
v 1.081086 1.503583 33.551495
v 0.025443 -0.496417 34.066227
v 0.025443 1.503583 33.640694
v -1.126964 -0.496417 33.968853
v -1.030198 1.503583 33.551495
v -2.235085 -0.496417 33.680466
v -2.045273 1.503583 33.287323
v -3.256337 -0.496417 33.212151
v -2.980772 1.503583 32.858330
v -4.151469 -0.496417 32.581902
v -3.800741 1.503583 32.281006
v -4.886086 -0.496417 31.813946
v -4.473674 1.503583 31.577532
v -5.431957 -0.496417 30.937788
v -4.973709 1.503583 30.774944
v -5.768102 -0.496417 29.987103
v -5.281628 1.503583 29.904085
v -5.881604 -0.496417 28.998423
v -5.385600 1.503583 28.998423
v -5.768102 -0.496417 28.009743
v -5.281628 1.503583 28.092760
v -5.431956 -0.496417 27.059057
v -4.973708 1.503583 27.221901
v -4.886088 -0.496417 26.182901
v -4.473675 1.503583 26.419315
v -4.151471 -0.496417 25.414944
v -3.800743 1.503583 25.715841
v -3.256337 -0.496417 24.784697
v -2.980771 1.503583 25.138515
v -2.235085 -0.496417 24.316380
v -2.045273 1.503583 24.709524
v -1.126963 -0.496417 24.027992
v -1.030198 1.503583 24.445351
v 1.177852 1.503583 24.027994
v 0.025444 1.503583 23.930616
v 2.285974 1.503583 24.316381
v 3.307224 1.503583 24.784697
v 4.202358 1.503583 25.414944
v 4.936975 1.503583 26.182899
v 5.482845 1.503583 27.059057
v 5.818990 1.503583 28.009743
v 5.932492 1.503583 28.998423
v 5.818990 1.503583 29.987103
v 5.482845 1.503583 30.937788
v 4.936975 1.503583 31.813944
v 4.202358 1.503583 32.581902
v 3.307224 1.503583 33.212151
v 2.285974 1.503583 33.680466
v 1.177852 1.503583 33.968853
v 0.025443 1.503583 34.066227
v -1.126964 1.503583 33.968853
v -2.235085 1.503583 33.680466
v -3.256337 1.503583 33.212151
v -4.151469 1.503583 32.581902
v -4.886086 1.503583 31.813946
v -5.431957 1.503583 30.937788
v -5.768102 1.503583 29.987103
v -5.881604 1.503583 28.998423
v -5.768102 1.503583 28.009743
v -5.431956 1.503583 27.059057
v -4.886088 1.503583 26.182901
v -4.151471 1.503583 25.414944
v -3.256337 1.503583 24.784697
v -2.235085 1.503583 24.316380
v -1.126963 1.503583 24.027992
v 1.081086 -0.338005 24.445351
v 0.025444 -0.338005 24.356152
v 2.096161 -0.338005 24.709524
v 3.031659 -0.338005 25.138515
v 3.851630 -0.338005 25.715841
v 4.524562 -0.338005 26.419315
v 5.024597 -0.338005 27.221903
v 5.332516 -0.338005 28.092760
v 5.436488 -0.338005 28.998423
v 5.332516 -0.338005 29.904085
v 5.024597 -0.338005 30.774942
v 4.524563 -0.338005 31.577530
v 3.851630 -0.338005 32.281006
v 3.031659 -0.338005 32.858330
v 2.096161 -0.338005 33.287323
v 1.081086 -0.338005 33.551495
v 0.025443 -0.338005 33.640694
v -1.030198 -0.338005 33.551495
v -2.045273 -0.338005 33.287323
v -2.980772 -0.338005 32.858330
v -3.800741 -0.338005 32.281006
v -4.473674 -0.338005 31.577532
v -4.973709 -0.338005 30.774944
v -5.281628 -0.338005 29.904085
v -5.385600 -0.338005 28.998423
v -5.281628 -0.338005 28.092760
v -4.973708 -0.338005 27.221901
v -4.473675 -0.338005 26.419315
v -3.800743 -0.338005 25.715841
v -2.980771 -0.338005 25.138515
v -2.045273 -0.338005 24.709524
v -1.030198 -0.338005 24.445351
vt 1.000000 0.500000
vt 1.000000 1.000000
vt 0.968750 1.000000
vt 0.968750 0.500000
vt 0.937500 1.000000
vt 0.937500 0.500000
vt 0.906250 1.000000
vt 0.906250 0.500000
vt 0.875000 1.000000
vt 0.875000 0.500000
vt 0.843750 1.000000
vt 0.843750 0.500000
vt 0.812500 1.000000
vt 0.812500 0.500000
vt 0.781250 1.000000
vt 0.781250 0.500000
vt 0.750000 1.000000
vt 0.750000 0.500000
vt 0.718750 1.000000
vt 0.718750 0.500000
vt 0.687500 1.000000
vt 0.687500 0.500000
vt 0.656250 1.000000
vt 0.656250 0.500000
vt 0.625000 1.000000
vt 0.625000 0.500000
vt 0.593750 1.000000
vt 0.593750 0.500000
vt 0.562500 1.000000
vt 0.562500 0.500000
vt 0.531250 1.000000
vt 0.531250 0.500000
vt 0.500000 1.000000
vt 0.500000 0.500000
vt 0.468750 1.000000
vt 0.468750 0.500000
vt 0.437500 1.000000
vt 0.437500 0.500000
vt 0.406250 1.000000
vt 0.406250 0.500000
vt 0.375000 1.000000
vt 0.375000 0.500000
vt 0.343750 1.000000
vt 0.343750 0.500000
vt 0.312500 1.000000
vt 0.312500 0.500000
vt 0.281250 1.000000
vt 0.281250 0.500000
vt 0.250000 1.000000
vt 0.250000 0.500000
vt 0.218750 1.000000
vt 0.218750 0.500000
vt 0.187500 1.000000
vt 0.187500 0.500000
vt 0.156250 1.000000
vt 0.156250 0.500000
vt 0.125000 1.000000
vt 0.125000 0.500000
vt 0.093750 1.000000
vt 0.093750 0.500000
vt 0.062500 1.000000
vt 0.062500 0.500000
vt 0.453113 0.334132
vt 0.432797 0.372141
vt 0.432797 0.372141
vt 0.453113 0.334132
vt 0.031250 1.000000
vt 0.031250 0.500000
vt 0.000000 1.000000
vt 0.000000 0.500000
vt 0.750000 0.490000
vt 0.796822 0.485388
vt 0.841844 0.471731
vt 0.883337 0.449553
vt 0.919706 0.419706
vt 0.949553 0.383337
vt 0.971731 0.341844
vt 0.985388 0.296822
vt 0.990000 0.250000
vt 0.985388 0.203178
vt 0.971731 0.158156
vt 0.949553 0.116663
vt 0.919706 0.080294
vt 0.883337 0.050447
vt 0.841844 0.028269
vt 0.796822 0.014612
vt 0.750000 0.010000
vt 0.703178 0.014612
vt 0.658156 0.028269
vt 0.616663 0.050447
vt 0.580294 0.080294
vt 0.550447 0.116663
vt 0.528269 0.158156
vt 0.514612 0.203178
vt 0.510000 0.250000
vt 0.514612 0.296822
vt 0.528269 0.341844
vt 0.550447 0.383337
vt 0.580294 0.419706
vt 0.616663 0.449553
vt 0.658156 0.471731
vt 0.703178 0.485388
vt 0.250000 0.469848
vt 0.292890 0.465623
vt 0.296822 0.485388
vt 0.250000 0.490000
vt 0.334132 0.453113
vt 0.341844 0.471731
vt 0.372141 0.432797
vt 0.383337 0.449553
vt 0.405456 0.405456
vt 0.419706 0.419706
vt 0.449553 0.383337
vt 0.471731 0.341844
vt 0.465623 0.292890
vt 0.485388 0.296822
vt 0.469848 0.250000
vt 0.490000 0.250000
vt 0.465623 0.207110
vt 0.485388 0.203178
vt 0.453113 0.165868
vt 0.471731 0.158156
vt 0.432797 0.127859
vt 0.449553 0.116663
vt 0.405456 0.094544
vt 0.419706 0.080294
vt 0.372141 0.067203
vt 0.383337 0.050447
vt 0.334132 0.046887
vt 0.341844 0.028269
vt 0.292890 0.034377
vt 0.296822 0.014612
vt 0.250000 0.030152
vt 0.250000 0.010000
vt 0.207110 0.034377
vt 0.203178 0.014612
vt 0.165868 0.046887
vt 0.158156 0.028269
vt 0.127859 0.067203
vt 0.116663 0.050447
vt 0.094544 0.094544
vt 0.080294 0.080294
vt 0.067203 0.127859
vt 0.050447 0.116663
vt 0.046887 0.165868
vt 0.028269 0.158156
vt 0.034377 0.207110
vt 0.014612 0.203178
vt 0.030152 0.250000
vt 0.010000 0.250000
vt 0.034377 0.292890
vt 0.014612 0.296822
vt 0.046887 0.334132
vt 0.028269 0.341844
vt 0.067203 0.372141
vt 0.050447 0.383337
vt 0.094544 0.405456
vt 0.080294 0.419706
vt 0.127859 0.432797
vt 0.116663 0.449553
vt 0.165868 0.453113
vt 0.158156 0.471731
vt 0.207110 0.465623
vt 0.203178 0.485388
vt 0.292890 0.465623
vt 0.250000 0.469848
vt 0.207110 0.465623
vt 0.165868 0.453113
vt 0.127859 0.432797
vt 0.094544 0.405456
vt 0.067203 0.372141
vt 0.046887 0.334132
vt 0.034377 0.292890
vt 0.030152 0.250000
vt 0.034377 0.207110
vt 0.046887 0.165868
vt 0.067203 0.127859
vt 0.094544 0.094544
vt 0.127859 0.067203
vt 0.165868 0.046887
vt 0.207110 0.034377
vt 0.250000 0.030152
vt 0.292890 0.034377
vt 0.334132 0.046887
vt 0.372141 0.067203
vt 0.405456 0.094544
vt 0.432797 0.127859
vt 0.453113 0.165868
vt 0.465623 0.207110
vt 0.469848 0.250000
vt 0.465623 0.292890
vt 0.405456 0.405456
vt 0.372141 0.432797
vt 0.334132 0.453113
vn 0.0842 0.0000 -0.9964
vn 0.2519 0.0000 -0.9678
vn 0.4168 0.0000 -0.9090
vn 0.5757 0.0000 -0.8177
vn 0.7226 0.0000 -0.6912
vn 0.8488 0.0000 -0.5288
vn 0.9428 0.0000 -0.3334
vn 0.9935 0.0000 -0.1141
vn 0.9935 0.0000 0.1141
vn 0.9428 0.0000 0.3334
vn 0.8487 0.0000 0.5288
vn 0.7226 0.0000 0.6912
vn 0.5757 0.0000 0.8177
vn 0.4168 0.0000 0.9090
vn 0.2519 0.0000 0.9678
vn 0.0842 0.0000 0.9964
vn -0.0842 0.0000 0.9964
vn -0.2519 0.0000 0.9678
vn -0.4168 0.0000 0.9090
vn -0.5757 0.0000 0.8177
vn -0.7226 0.0000 0.6912
vn -0.8487 0.0000 0.5288
vn -0.9428 0.0000 0.3334
vn -0.9935 0.0000 0.1141
vn -0.9935 0.0000 -0.1141
vn -0.9428 0.0000 -0.3334
vn -0.8488 0.0000 -0.5288
vn -0.7226 0.0000 -0.6912
vn -0.5757 0.0000 -0.8177
vn -0.4168 0.0000 -0.9090
vn -0.2519 0.0000 -0.9678
vn -0.0842 0.0000 -0.9964
vn 0.0000 -1.0000 -0.0000
vn 0.0000 1.0000 -0.0000
vn 0.8487 0.0000 -0.5288
vn -0.8487 0.0000 -0.5288
usemtl None
s off
f 48/83/36 113/84/36 112/85/36 50/86/36
f 50/86/37 112/85/37 114/87/37 52/88/37
f 52/88/38 114/87/38 115/89/38 54/90/38
f 54/90/39 115/89/39 116/91/39 56/92/39
f 56/92/40 116/91/40 117/93/40 58/94/40
f 58/94/41 117/93/41 118/95/41 60/96/41
f 60/96/42 118/95/42 119/97/42 62/98/42
f 62/98/43 119/97/43 120/99/43 64/100/43
f 64/100/44 120/99/44 121/101/44 66/102/44
f 66/102/45 121/101/45 122/103/45 68/104/45
f 68/104/46 122/103/46 123/105/46 70/106/46
f 70/106/47 123/105/47 124/107/47 72/108/47
f 72/108/48 124/107/48 125/109/48 74/110/48
f 74/110/49 125/109/49 126/111/49 76/112/49
f 76/112/50 126/111/50 127/113/50 78/114/50
f 78/114/51 127/113/51 128/115/51 80/116/51
f 80/116/52 128/115/52 129/117/52 82/118/52
f 82/118/53 129/117/53 130/119/53 84/120/53
f 84/120/54 130/119/54 131/121/54 86/122/54
f 86/122/55 131/121/55 132/123/55 88/124/55
f 88/124/56 132/123/56 133/125/56 90/126/56
f 90/126/57 133/125/57 134/127/57 92/128/57
f 92/128/58 134/127/58 135/129/58 94/130/58
f 94/130/59 135/129/59 136/131/59 96/132/59
f 96/132/60 136/131/60 137/133/60 98/134/60
f 98/134/61 137/133/61 138/135/61 100/136/61
f 100/136/62 138/135/62 139/137/62 102/138/62
f 102/138/63 139/137/63 140/139/63 104/140/63
f 104/140/64 140/139/64 141/141/64 106/142/64
f 106/142/65 141/141/65 142/143/65 108/144/65
f 61/145/57 59/146/57 149/147/57 150/148/57
f 108/144/66 142/143/66 143/149/66 110/150/66
f 110/150/67 143/149/67 113/151/67 48/152/67
f 48/153/68 50/154/68 52/155/68 54/156/68 56/157/68 58/158/68 60/159/68 62/160/68 64/161/68 66/162/68 68/163/68 70/164/68 72/165/68 74/166/68 76/167/68 78/168/68 80/169/68 82/170/68 84/171/68 86/172/68 88/173/68 90/174/68 92/175/68 94/176/68 96/177/68 98/178/68 100/179/68 102/180/68 104/181/68 106/182/68 108/183/68 110/184/68
f 49/185/69 51/186/69 112/187/69 113/188/69
f 51/186/69 53/189/69 114/190/69 112/187/69
f 53/189/69 55/191/69 115/192/69 114/190/69
f 55/191/69 57/193/69 116/194/69 115/192/69
f 57/193/69 59/146/69 117/195/69 116/194/69
f 59/146/69 61/145/69 118/196/69 117/195/69
f 61/145/69 63/197/69 119/198/69 118/196/69
f 63/197/69 65/199/69 120/200/69 119/198/69
f 65/199/69 67/201/69 121/202/69 120/200/69
f 67/201/69 69/203/69 122/204/69 121/202/69
f 69/203/69 71/205/69 123/206/69 122/204/69
f 71/205/69 73/207/69 124/208/69 123/206/69
f 73/207/69 75/209/69 125/210/69 124/208/69
f 75/209/69 77/211/69 126/212/69 125/210/69
f 77/211/69 79/213/69 127/214/69 126/212/69
f 79/213/69 81/215/69 128/216/69 127/214/69
f 81/215/69 83/217/69 129/218/69 128/216/69
f 83/217/69 85/219/69 130/220/69 129/218/69
f 85/219/69 87/221/69 131/222/69 130/220/69
f 87/221/69 89/223/69 132/224/69 131/222/69
f 89/223/69 91/225/69 133/226/69 132/224/69
f 91/225/69 93/227/69 134/228/69 133/226/69
f 93/227/69 95/229/69 135/230/69 134/228/69
f 95/229/69 97/231/69 136/232/69 135/230/69
f 97/231/69 99/233/69 137/234/69 136/232/69
f 99/233/69 101/235/69 138/236/69 137/234/69
f 101/235/69 103/237/69 139/238/69 138/236/69
f 103/237/69 105/239/69 140/240/69 139/238/69
f 105/239/69 107/241/69 141/242/69 140/240/69
f 107/241/69 109/243/69 142/244/69 141/242/69
f 109/243/69 111/245/69 143/246/69 142/244/69
f 111/245/69 49/185/69 113/188/69 143/246/69
f 144/247/69 145/248/69 175/249/69 174/250/69 173/251/69 172/252/69 171/253/69 170/254/69 169/255/69 168/256/69 167/257/69 166/258/69 165/259/69 164/260/69 163/261/69 162/262/69 161/263/69 160/264/69 159/265/69 158/266/69 157/267/69 156/268/69 155/269/69 154/270/69 153/271/69 152/272/69 151/273/69 150/148/69 149/147/69 148/274/69 147/275/69 146/276/69
f 89/223/39 87/221/39 163/261/39 164/260/39
f 63/197/58 61/145/58 150/148/58 151/273/58
f 91/225/40 89/223/40 164/260/40 165/259/40
f 65/199/59 63/197/59 151/273/59 152/272/59
f 93/227/70 91/225/70 165/259/70 166/258/70
f 67/201/60 65/199/60 152/272/60 153/271/60
f 95/229/42 93/227/42 166/258/42 167/257/42
f 69/203/61 67/201/61 153/271/61 154/270/61
f 97/231/43 95/229/43 167/257/43 168/256/43
f 71/205/71 69/203/71 154/270/71 155/269/71
f 99/233/44 97/231/44 168/256/44 169/255/44
f 73/207/63 71/205/63 155/269/63 156/268/63
f 101/235/45 99/233/45 169/255/45 170/254/45
f 75/209/64 73/207/64 156/268/64 157/267/64
f 103/237/46 101/235/46 170/254/46 171/253/46
f 77/211/65 75/209/65 157/267/65 158/266/65
f 51/186/52 49/185/52 145/248/52 144/247/52
f 105/239/47 103/237/47 171/253/47 172/252/47
f 79/213/66 77/211/66 158/266/66 159/265/66
f 53/189/53 51/186/53 144/247/53 146/276/53
f 107/241/48 105/239/48 172/252/48 173/251/48
f 81/215/67 79/213/67 159/265/67 160/264/67
f 55/191/54 53/189/54 146/276/54 147/275/54
f 109/243/49 107/241/49 173/251/49 174/250/49
f 83/217/36 81/215/36 160/264/36 161/263/36
f 57/193/55 55/191/55 147/275/55 148/274/55
f 111/245/50 109/243/50 174/250/50 175/249/50
f 85/219/37 83/217/37 161/263/37 162/262/37
f 59/146/56 57/193/56 148/274/56 149/147/56
f 49/185/51 111/245/51 175/249/51 145/248/51
f 87/221/38 85/219/38 162/262/38 163/261/38
